<svg width="52" height="52" viewBox="0 0 52 52" fill="none" xmlns="http://www.w3.org/2000/svg">
<rect width="52" height="52" fill="#F5F5F5"/>
<g filter="url(#filter0_d_164_6)">
<rect x="4" width="44" height="44" rx="10" fill="url(#paint0_linear_164_6)" shape-rendering="crispEdges"/>
<rect x="4.5" y="0.5" width="43" height="43" rx="9.5" stroke="url(#paint1_linear_164_6)" stroke-opacity="0.8" shape-rendering="crispEdges"/>
<g clip-path="url(#clip0_164_6)">
<path d="M19.1666 29.0707L33.7083 22.8374C34.3833 22.5457 34.3833 21.5957 33.7083 21.3041L19.1666 15.0707C18.6166 14.8291 18.0083 15.2374 18.0083 15.8291L17.9999 19.6707C17.9999 20.0874 18.3083 20.4457 18.7249 20.4957L30.5 22.0707L18.7249 23.6374C18.3083 23.6957 17.9999 24.0541 17.9999 24.4707L18.0083 28.3124C18.0083 28.9041 18.6166 29.3124 19.1666 29.0707V29.0707Z" fill="#E5E5E5"/>
</g>
</g>
<defs>
<filter id="filter0_d_164_6" x="0" y="0" width="52" height="52" filterUnits="userSpaceOnUse" color-interpolation-filters="sRGB">
<feFlood flood-opacity="0" result="BackgroundImageFix"/>
<feColorMatrix in="SourceAlpha" type="matrix" values="0 0 0 0 0 0 0 0 0 0 0 0 0 0 0 0 0 0 127 0" result="hardAlpha"/>
<feOffset dy="4"/>
<feGaussianBlur stdDeviation="2"/>
<feComposite in2="hardAlpha" operator="out"/>
<feColorMatrix type="matrix" values="0 0 0 0 0 0 0 0 0 0 0 0 0 0 0 0 0 0 0.05 0"/>
<feBlend mode="normal" in2="BackgroundImageFix" result="effect1_dropShadow_164_6"/>
<feBlend mode="normal" in="SourceGraphic" in2="effect1_dropShadow_164_6" result="shape"/>
</filter>
<linearGradient id="paint0_linear_164_6" x1="-3.57246" y1="-4.79174e-06" x2="57.2998" y2="2.08565" gradientUnits="userSpaceOnUse">
<stop stop-color="#019A5A" stop-opacity="0.7"/>
<stop offset="1" stop-color="#019A5A" stop-opacity="0.8"/>
</linearGradient>
<linearGradient id="paint1_linear_164_6" x1="26" y1="0" x2="26" y2="44" gradientUnits="userSpaceOnUse">
<stop stop-color="#019A5A"/>
<stop offset="1" stop-color="#019A5A"/>
</linearGradient>
<clipPath id="clip0_164_6">
<rect width="20" height="20" fill="white" transform="translate(16 12)"/>
</clipPath>
</defs>
</svg>
